<?xml version="1.0" standalone="no"?><!DOCTYPE svg PUBLIC "-//W3C//DTD SVG 1.1//EN"
        "http://www.w3.org/Graphics/SVG/1.1/DTD/svg11.dtd">
<svg t="1556593622346" class="icon" style="" viewBox="0 0 1024 1024" version="1.1" xmlns="http://www.w3.org/2000/svg"
     p-id="1972" data-spm-anchor-id="a313x.7781069.0.i0" xmlns:xlink="http://www.w3.org/1999/xlink" width="32"
     height="32">
    <defs>
        <style type="text/css"></style>
    </defs>
    <path
            fill="#ff9a58"
            d="M393.271351 822.382703a52.445405 52.445405 0 0 1-25.046486-5.950271 51.338378 51.338378 0 0 1-26.43027-45.664864V487.507027l-198.01946-197.881081A51.476757 51.476757 0 0 1 179.891892 201.617297h517.258378A51.476757 51.476757 0 0 1 733.405405 289.625946L535.662703 487.645405V714.032432A51.338378 51.338378 0 0 1 512 757.76l-90.776216 56.735135a51.615135 51.615135 0 0 1-27.952433 7.887568zM189.44 256.968649L381.924324 449.591351a51.476757 51.476757 0 0 1 15.221622 36.393514v278.002162l83.027027-52.03027V485.984865a51.891892 51.891892 0 0 1 15.083243-36.393514l192.761081-192.622702z m507.71027 0zM743.091892 802.594595a27.675676 27.675676 0 0 1-27.675676-27.675676V525.837838a27.675676 27.675676 0 0 1 55.351352 0v249.081081a27.675676 27.675676 0 0 1-27.675676 27.675676z"
            p-id="1973"></path>
    <path fill="#ff9a58"
          d="M867.632432 678.054054h-249.081081a27.675676 27.675676 0 0 1 0-55.351351h249.081081a27.675676 27.675676 0 0 1 0 55.351351z"
          p-id="1974"></path>
</svg>